<?xml version="1.0" encoding="utf-8"?>
<!-- Generator: Adobe Illustrator 18.1.0, SVG Export Plug-In . SVG Version: 6.00 Build 0)  -->
<!DOCTYPE svg PUBLIC "-//W3C//DTD SVG 1.1//EN" "http://www.w3.org/Graphics/SVG/1.1/DTD/svg11.dtd">
<svg version="1.1" id="Layer_1" xmlns="http://www.w3.org/2000/svg" xmlns:xlink="http://www.w3.org/1999/xlink" x="0px" y="0px"
	 viewBox="424.8 10.3 1070.4 1059.4" enable-background="new 424.8 10.3 1070.4 1059.4" xml:space="preserve">
<g>
	<path fill="#FFFFFF" d="M1321.6,46.3l132,228.8l-132,228.8h-264.3l-132-228.8l132-228.8H1321.6 M1342.4,10.3h-305.9L883.8,275.1
		l152.8,264.8h305.9l152.8-264.8L1342.4,10.3L1342.4,10.3z"/>
</g>
<g>
	<path fill="#FFFFFF" d="M1321.6,575.8l132,229.1l-132,228.8h-264.3l-132-228.8l132-229.1H1321.6 M1342.4,539.8h-305.9L883.8,804.9
		l152.8,264.8h305.9l152.8-264.8L1342.4,539.8L1342.4,539.8z"/>
</g>
<g>
	<path fill="#FFFFFF" d="M862.7,307.6l132,228.8l-132,229.1H598.4l-132-229.1l132-228.8H862.7 M883.4,271.6H577.6L424.8,536.4
		l152.8,265.1h305.9l152.8-265.1L883.4,271.6L883.4,271.6z"/>
</g>
<g>
	<path fill="#FFFFFF" d="M1033.8,273.4c35.3,0,69.5,6.9,101.7,20.5c31.1,13.2,59.1,32,83.1,56s42.9,52,56,83.1
		c13.6,32.2,20.5,66.4,20.5,101.7c0,35.3-6.9,69.5-20.5,101.7c-13.2,31.1-32,59.1-56,83.1s-52,42.9-83.1,56
		c-32.2,13.6-66.4,20.5-101.7,20.5s-69.5-6.9-101.7-20.5c-31.1-13.2-59.1-32-83.1-56s-42.9-52-56-83.1
		c-13.6-32.2-20.5-66.4-20.5-101.7c0-35.3,6.9-69.5,20.5-101.7c13.2-31.1,32-59.1,56-83.1s52-42.9,83.1-56
		C964.3,280.3,998.5,273.4,1033.8,273.4 M1033.8,237.4c-164.2,0-297.3,133.1-297.3,297.3c0,164.2,133.1,297.3,297.3,297.3
		s297.3-133.1,297.3-297.3C1331.1,370.5,1198,237.4,1033.8,237.4L1033.8,237.4z"/>
</g>
<g>
	<path fill="#FFFFFF" d="M921.9,339.1l338.2,196.1L919.8,738L921.9,339.1 M886.2,276.8l-2.7,524.8l447.7-266.8L886.2,276.8
		L886.2,276.8z"/>
</g>
</svg>
